<svg xmlns="http://www.w3.org/2000/svg" viewBox="0 0 128.87 128.87"><defs><style>.cls-1{fill:none;stroke:#000;stroke-miterlimit:10;stroke-width:2px;}.cls-2{fill:#fff;}</style></defs><g id="Capa_2" data-name="Capa 2"><g id="Capa_1-2" data-name="Capa 1"><path class="cls-1" d="M64.43,1a63.44,63.44,0,1,0,63.44,63.43A63.43,63.43,0,0,0,64.43,1Z"/><path class="cls-2" d="M87.05,36c1.43,4,5.48,4.62,9.26,5,.58,0,1.18.06,1.77.06-.44,0-.89,0-1.33-.06-3.77-.35-7.82-1-9.25-5-2.06-5.67-6.36-7.63-11.59-7.92-3.28-.18-6.58-.27-9.87-.27,3.15,0,6.29.09,9.43.27C80.7,28.33,85,30.29,87.05,36Z"/><path class="cls-2" d="M66.3,95h.44v0H66.3Z"/><path class="cls-2" d="M111,51.24a10.6,10.6,0,0,0-8.73-10.1,17.18,17.18,0,0,0-3-.16,15,15,0,0,1,2.6.16,10.59,10.59,0,0,1,8.73,10.1c.19,11.12.22,22.25,0,33.37A10.75,10.75,0,0,1,99.66,95Q91.4,95,83.12,95q8.49,0,17,0a10.76,10.76,0,0,0,11-10.36Q111.33,67.93,111,51.24Z"/><path d="M66.74,95l16.38,0L66.74,95Z"/><path d="M22.2,82.89c0-9.92,0-19.85,0-29.77.05-8,4.09-11.88,12.06-12.23a26.82,26.82,0,0,0,7.84-1.8A5,5,0,0,0,45,36.15C46.54,30,51.29,28.33,56.62,28c3.13-.18,6.28-.26,9.42-.27-3.29,0-6.59.08-9.87.27-5.32.29-10.07,1.94-11.65,8.11a5.05,5.05,0,0,1-2.83,2.94,26.81,26.81,0,0,1-7.85,1.8c-8,.35-12,4.22-12.05,12.23-.07,9.92-.06,19.85,0,29.77C21.79,90.77,26,95,33.91,95q8.24,0,16.49,0-8,0-16,0C26.42,95,22.23,90.77,22.2,82.89Z"/><path d="M99.25,41h0Z"/><path d="M110.61,84.61c.19-11.12.16-22.25,0-33.37a10.59,10.59,0,0,0-8.73-10.1,15,15,0,0,0-2.6-.16H98.08c-.59,0-1.19,0-1.77-.06-3.78-.35-7.83-1-9.26-5C85,30.29,80.7,28.33,75.47,28c-3.14-.18-6.28-.26-9.43-.27s-6.29.09-9.42.27C51.29,28.33,46.54,30,45,36.15a5,5,0,0,1-2.84,2.94,26.82,26.82,0,0,1-7.84,1.8c-8,.35-12,4.22-12.06,12.23-.07,9.92-.06,19.85,0,29.77C22.23,90.77,26.42,95,34.35,95q8,0,16,0H66.3v0h.44l16.38,0q8.26,0,16.54,0A10.75,10.75,0,0,0,110.61,84.61ZM66.28,92.68h0q-15.7,0-31.41,0c-7.53,0-10.79-3.25-10.8-10.72q0-14.07,0-28.14c0-6.9,3.21-10.09,10.13-10.52,2.57-.16,5.34-.32,7.6-1.38a9.91,9.91,0,0,0,4.89-4.83c1.54-4.34,4.64-6.07,8.65-6.23,6.86-.27,13.74-.28,20.6,0,4,.15,7.3,1.77,8.77,6.08s5.38,5.73,9.55,6.28c2.26.29,4.59.14,6.82.57,4.4.85,7.17,4,7.22,8.46.13,10.47.15,20.94,0,31.41-.09,5.55-4,9-10,9C87.66,92.73,77,92.68,66.28,92.68Z"/><path class="cls-2" d="M55.81,72.34l0,0-.13,0Z"/><path d="M80.74,65.48C80.65,73.36,73.88,80.07,66.12,80c-8-.12-14.85-7-14.71-14.77s7-14.54,14.75-14.46A14.77,14.77,0,0,1,80.74,65.48Z"/><path class="cls-1" d="M87.81,65.55C87.68,77.23,77.64,87.18,66.14,87c-11.85-.19-22-10.4-21.79-21.9S54.77,43.56,66.2,43.67A21.91,21.91,0,0,1,87.81,65.55Z"/></g></g></svg>