<svg xmlns="http://www.w3.org/2000/svg" xmlns:xlink="http://www.w3.org/1999/xlink" viewBox="0 0 128.87 128.87"><defs><style>.cls-1,.cls-2{fill:none;}.cls-2{stroke:#000;stroke-miterlimit:10;stroke-width:2px;}.cls-3{clip-path:url(#clip-path);}</style><clipPath id="clip-path"><ellipse class="cls-1" cx="64.24" cy="66.5" rx="48.5" ry="50.5"/></clipPath></defs><g id="Capa_2" data-name="Capa 2"><g id="Capa_1-2" data-name="Capa 1"><path class="cls-2" d="M64.43,1a63.44,63.44,0,1,0,63.44,63.43A63.43,63.43,0,0,0,64.43,1Z"/><g class="cls-3"><path d="M66.64,71.68l0,.07a4.87,4.87,0,0,0,4.82-4.88,1.15,1.15,0,0,0-.08-.41A1.08,1.08,0,0,0,69.87,66a1.11,1.11,0,0,0-.56.84,2.66,2.66,0,0,1-2.67,2.66,1.08,1.08,0,0,0,0,2.15Z"/><rect x="50.19" y="102.2" width="2.23" height="11.26"/><polygon points="68.02 102.2 65.92 102.2 64.8 105.35 63.68 102.2 61.34 102.2 63.46 107.81 61.23 113.46 63.36 113.46 64.59 110.13 65.83 113.46 68.13 113.46 65.92 107.64 68.02 102.2"/><path d="M1,64.43a63.43,63.43,0,0,0,126.74,3.9V60.6A63.43,63.43,0,0,0,1,64.43ZM64.43,5.88A58.56,58.56,0,1,1,5.88,64.43,58.56,58.56,0,0,1,64.43,5.88Z"/><path d="M57.65,102.25H54.24v11.26h2.23v-4.15h1.11q2.84,0,2.84-3.66Q60.4,102.25,57.65,102.25Zm-.41,5.3v0h-.77v-3.53h.79c.65,0,1,.55,1,1.64S57.9,107.55,57.24,107.55Z"/><rect x="69.08" y="107.92" width="3.05" height="1.61"/><path d="M78.23,107.75a1.83,1.83,0,0,0,.86-1.68v-1.63a2.2,2.2,0,0,0-.77-1.8,3,3,0,0,0-2-.62,2.94,2.94,0,0,0-2,.66,2.24,2.24,0,0,0-.76,1.82v1.67a1.9,1.9,0,0,0,.22.9,1.49,1.49,0,0,0,.63.66,1.89,1.89,0,0,0-1,1.77v1.72a2.1,2.1,0,0,0,.79,1.79,3.78,3.78,0,0,0,4.15,0,2.13,2.13,0,0,0,.8-1.78v-1.79A1.76,1.76,0,0,0,78.23,107.75Zm-2.62-3.33a.58.58,0,0,1,.21-.47.8.8,0,0,1,.53-.19.84.84,0,0,1,.55.19.63.63,0,0,1,.21.52v1.73a.72.72,0,0,1-.21.54.82.82,0,0,1-1.08,0,.69.69,0,0,1-.21-.52Zm1.5,4.85v1.94a.68.68,0,0,1-.2.52.89.89,0,0,1-1.11,0,.68.68,0,0,1-.2-.52v-2a.67.67,0,0,1,.2-.52.79.79,0,0,1,.55-.19.72.72,0,0,1,.76.68Z"/><path d="M44.6,82.56A38.63,38.63,0,0,0,63.74,96.25a2.32,2.32,0,0,0,1.38,0A38.69,38.69,0,0,0,84.27,82.54,61.27,61.27,0,0,0,93.9,63a94.14,94.14,0,0,0,4-24.94,2.24,2.24,0,0,0-2-2.2c-.18,0-17.8-1.81-30.08-10.67a2.27,2.27,0,0,0-2.65,0C50.83,34.06,33.22,35.85,33,35.88a2.24,2.24,0,0,0-2,2.24A94,94,0,0,0,35,63,61.27,61.27,0,0,0,44.6,82.56ZM64.06,38.61a.38.38,0,0,1,.47-.28.37.37,0,0,1,.28.28c1.65,13.26,10,16,10,25.2a10.43,10.43,0,0,1-20.86,0C54,54.6,62.42,51.87,64.06,38.61Z"/></g></g></g></svg>