<svg xmlns="http://www.w3.org/2000/svg" viewBox="0 0 128.87 128.87"><defs><style>.cls-1{fill:#fff;}.cls-2{fill:none;stroke:#000;stroke-miterlimit:10;stroke-width:2px;}</style></defs><g id="Capa_2" data-name="Capa 2"><g id="Capa_1-2" data-name="Capa 1"><polygon class="cls-1" points="48.41 28.35 47.39 27.69 46.49 27.11 42.37 24.43 42.37 102.61 46.49 100.03 47.39 99.47 48.12 99.01 51.64 96.81 51.64 96.81 51.64 94.94 51.64 94.94 51.64 94.94 47.39 97.67 46.49 98.25 43.98 99.86 43.98 27.13 46.49 28.8 47.39 29.39 51.64 32.22 51.64 30.45 51.64 30.45 48.41 28.35"/><path d="M90.88,23.88v-.17H58a5.5,5.5,0,0,0-5.48,5.14l-6-7a4.6,4.6,0,0,0-1.68-2l-.05-.06v0a4.64,4.64,0,0,0-7.15,3.92v79.39a4.65,4.65,0,0,0,8.87,1.94l6-6.77A5.49,5.49,0,0,0,58,103.28h32.9v-.17a5.5,5.5,0,0,0,4.19-5.34V29.22A5.49,5.49,0,0,0,90.88,23.88ZM51.64,32.22l-4.25-2.83-.9-.59L44,27.13V99.86l2.51-1.61.9-.58,4.25-2.73h0v1.87h0L48.12,99l-.73.46-.9.56-4.12,2.58V24.43l4.12,2.68.9.58,1,.66,3.23,2.1h0ZM91.68,98a3.08,3.08,0,0,1-.8,2.13,1.8,1.8,0,0,1-1.29.6H58c-1.15,0-2.08-1.21-2.09-2.72h0V29c0-1.5.94-2.72,2.09-2.72H89.59l.18,0a1.86,1.86,0,0,1,1.11.58,3.1,3.1,0,0,1,.8,2.14Z"/><path class="cls-2" d="M64.43,1a63.44,63.44,0,1,0,63.44,63.43A63.43,63.43,0,0,0,64.43,1Z"/></g></g></svg>