<svg xmlns="http://www.w3.org/2000/svg" viewBox="0 0 59.77 59.77"><defs><style>.cls-1{fill:#fff;}</style></defs><g id="Capa_2" data-name="Capa 2"><g id="Capa_1-2" data-name="Capa 1"><path class="cls-1" d="M29.88,0A29.89,29.89,0,1,0,59.77,29.88,29.88,29.88,0,0,0,29.88,0Zm8.76,17.22a.47.47,0,0,1-.47.48h-3.8a1.69,1.69,0,0,0-1.69,1.69v4h5.4a.48.48,0,0,1,.48.51l-.48,5.61a.47.47,0,0,1-.47.43H32.68v18.6a.47.47,0,0,1-.48.48H25.41a.47.47,0,0,1-.48-.48V29.92h-3.4a.47.47,0,0,1-.47-.47V23.84a.47.47,0,0,1,.47-.47h3.4V18a6.82,6.82,0,0,1,6.82-6.82h6.42a.48.48,0,0,1,.47.48Z"/></g></g></svg>