<svg xmlns="http://www.w3.org/2000/svg" viewBox="0 0 59.77 59.77"><defs><style>.cls-1{fill:#fff;}</style></defs><g id="Capa_2" data-name="Capa 2"><g id="Capa_1-2" data-name="Capa 1"><path class="cls-1" d="M37.88,13.81H22.07A8.18,8.18,0,0,0,13.9,22V37.79A8.19,8.19,0,0,0,22.07,46H37.88a8.18,8.18,0,0,0,8.17-8.17V22A8.17,8.17,0,0,0,37.88,13.81ZM30.14,39.63a9.75,9.75,0,1,1,9.75-9.75A9.76,9.76,0,0,1,30.14,39.63ZM40.46,21.8a2.33,2.33,0,1,1,2.32-2.32A2.32,2.32,0,0,1,40.46,21.8Z"/><path class="cls-1" d="M29.88,0A29.89,29.89,0,1,0,59.77,29.88,29.88,29.88,0,0,0,29.88,0Zm19.9,37.79a11.91,11.91,0,0,1-11.9,11.89H22.07A11.9,11.9,0,0,1,10.18,37.79V22a11.91,11.91,0,0,1,11.89-11.9H37.88A11.92,11.92,0,0,1,49.78,22Z"/><path class="cls-1" d="M30.14,23.64a6.25,6.25,0,1,0,6.25,6.24A6.26,6.26,0,0,0,30.14,23.64Z"/></g></g></svg>