<svg xmlns="http://www.w3.org/2000/svg" viewBox="0 0 59.77 59.77"><defs><style>.cls-1{fill:#fff;}</style></defs><g id="Capa_2" data-name="Capa 2"><g id="Capa_1-2" data-name="Capa 1"><path class="cls-1" d="M29.88,0A29.89,29.89,0,1,0,59.77,29.88,29.88,29.88,0,0,0,29.88,0ZM22.29,45.1Zm1.24,0s0,0,0,0S24.13,45.13,23.53,45.13ZM48.17,18.39A.91.91,0,0,1,48,19,14.92,14.92,0,0,1,45.06,22c-.17.12-.45.26-.45.49,0,6.09-1.55,12.16-6,16.57C33,44.71,24.51,46.23,17,44.15a20.46,20.46,0,0,1-4.19-1.67c-.44-.24-.87-.49-1.3-.77-.11-.09-.19-.17-.1-.23s.17,0,.5,0a14.66,14.66,0,0,0,6.26-.8c1.1-.38,3.44-1.15,4.12-2.18,0,0,0,0,0,0-.27-.06-.55-.06-.82-.11-2-.59-4.77-1.61-6-5.06-.08-.2,0-.3.21-.26a8.71,8.71,0,0,0,2.88-.09,4.82,4.82,0,0,1-1-.3,7.78,7.78,0,0,1-4.79-6.2,4.36,4.36,0,0,1,0-.87c0-.2.1-.27.28-.15a7.91,7.91,0,0,0,2.93.82,12.37,12.37,0,0,1-.93-.82c-2.23-2.12-3.1-6.42-1.32-9.1.15-.21.25-.21.42,0C18.21,21,23.23,23.12,29.3,24c.16,0,.18,0,.15-.17a8.11,8.11,0,0,1,.08-3.18,7.78,7.78,0,0,1,1.5-3,8,8,0,0,1,2.51-2.05,7.88,7.88,0,0,1,3.12-.88,7.53,7.53,0,0,1,3.28.53,7.9,7.9,0,0,1,2.14,1.31,4.72,4.72,0,0,1,.38.39.29.29,0,0,0,.31.08,18.44,18.44,0,0,0,4.41-1.69.23.23,0,0,1,.2,0,.15.15,0,0,1,0,.19,6.85,6.85,0,0,1-1.24,2.26c-.35.43-1.24,1.52-1.84,1.62A14.94,14.94,0,0,0,48,18.36c.15-.07.14-.1.14,0Z"/></g></g></svg>