<svg xmlns="http://www.w3.org/2000/svg" viewBox="0 0 59.77 59.77"><defs><style>.cls-1{fill:#fff;}</style></defs><g id="Capa_2" data-name="Capa 2"><g id="Capa_1-2" data-name="Capa 1"><path class="cls-1" d="M27.14,24.72c-.36-.21-.7.06-.7.47v9.45c0,.41.33.68.69.48l8.39-4.6a.55.55,0,0,0,.07-1Z"/><path class="cls-1" d="M29.88,0A29.89,29.89,0,1,0,59.77,29.88,29.88,29.88,0,0,0,29.88,0ZM48.79,35a8.11,8.11,0,0,1-8.11,8.11h-21A8.11,8.11,0,0,1,11.54,35V25.09A8.11,8.11,0,0,1,19.65,17h21a8.11,8.11,0,0,1,8.11,8.11Z"/></g></g></svg>