<?xml version="1.0" standalone="no"?><!DOCTYPE svg PUBLIC "-//W3C//DTD SVG 1.1//EN" "http://www.w3.org/Graphics/SVG/1.1/DTD/svg11.dtd"><svg class="icon" height="512" viewBox="0 0 1024 1024" version="1.1" xmlns="http://www.w3.org/2000/svg"><path d="M512 0a512 512 0 1 0 512 512A512.590769 512.590769 0 0 0 512 0z m0 984.615385a472.615385 472.615385 0 1 1 472.615385-472.615385 473.107692 473.107692 0 0 1-472.615385 472.615385zM529.427692 571.076923a39.384615 39.384615 0 0 0 38.892308-39.384615 8.763077 8.763077 0 0 0-0.689231-3.347693A8.664615 8.664615 0 0 0 551.384615 531.692308a21.563077 21.563077 0 0 1-21.563077 21.464615 8.664615 8.664615 0 0 0 0 17.329231zM765.44 281.501538c-1.378462 0-143.655385-14.572308-242.707692-86.055384a18.313846 18.313846 0 0 0-21.464616 0c-99.052308 71.384615-241.230769 85.858462-242.707692 86.055384a18.215385 18.215385 0 0 0-16.541538 18.116924 760.615385 760.615385 0 0 0 32.196923 201.156923 493.784615 493.784615 0 0 0 77.686153 157.538461 311.827692 311.827692 0 0 0 154.486154 110.473846 18.609231 18.609231 0 0 0 11.126154 0 311.729231 311.729231 0 0 0 154.584616-110.670769 493.981538 493.981538 0 0 0 77.686153-157.538461 761.501538 761.501538 0 0 0 32.196923-201.255385 18.215385 18.215385 0 0 0-16.541538-17.821539zM512 590.178462a84.283077 84.283077 0 0 1-84.184615-83.2c0-74.338462 67.938462-96.393846 81.132307-203.421539a3.150769 3.150769 0 0 1 6.104616 0c13.292308 107.027692 81.132308 129.083077 81.132307 203.421539A84.283077 84.283077 0 0 1 512 590.178462zM396.996923 816.836923h18.018462v90.88h-18.018462zM457.255385 817.230769h-27.569231v90.88h18.018461v-33.476923h8.96q22.941538 0 22.941539-29.538461Q479.507692 817.230769 457.255385 817.230769z m-3.347693 43.126154h-6.203077v-28.553846h6.4q7.876923 0 7.876923 13.292308 0 14.867692-8.073846 14.867692zM540.947692 816.836923h-16.935384l-9.058462 25.403077-9.058461-25.403077h-18.904616l17.132308 45.292308-18.018462 45.587692h17.23077l9.944615-26.88 9.944615 26.88h18.609231l-17.821538-46.966154 16.935384-43.913846zM549.513846 863.015385h24.615385v12.996923h-24.615385zM623.36 861.636923a14.769231 14.769231 0 0 0 6.892308-13.587692v-13.193846a17.526154 17.526154 0 0 0-6.203077-14.473847 24.32 24.32 0 0 0-15.852308-5.021538 23.827692 23.827692 0 0 0-16.049231 5.316923 18.313846 18.313846 0 0 0-6.203077 14.670769v13.489231a16.049231 16.049231 0 0 0 1.772308 7.286154 12.110769 12.110769 0 0 0 5.12 5.316923 15.36 15.36 0 0 0-7.778461 14.276923v13.883077a17.132308 17.132308 0 0 0 6.4 14.473846 26.584615 26.584615 0 0 0 16.738461 4.923077 26.190769 26.190769 0 0 0 16.738462-5.12 17.230769 17.230769 0 0 0 6.498461-14.375385v-14.375384a14.178462 14.178462 0 0 0-8.073846-13.489231z m-9.058462 27.864615a5.809231 5.809231 0 0 1-1.575384 4.233847 7.187692 7.187692 0 0 1-8.96 0 5.612308 5.612308 0 0 1-1.673846-4.233847V873.353846a5.415385 5.415385 0 0 1 1.673846-4.135384 6.203077 6.203077 0 0 1 4.430769-1.575385 5.809231 5.809231 0 0 1 6.104615 6.203077z m0-40.36923a5.809231 5.809231 0 0 1-1.673846 4.332307 6.793846 6.793846 0 0 1-8.763077 0 5.710769 5.710769 0 0 1-1.673846-4.233846v-14.473846a4.923077 4.923077 0 0 1 1.673846-3.84 6.301538 6.301538 0 0 1 4.332308-1.476923 6.498462 6.498462 0 0 1 4.430769 1.476923 5.218462 5.218462 0 0 1 1.673846 4.233846z" /></svg>